<svg width="56" height="56" viewBox="0 0 56 56" fill="none" xmlns="http://www.w3.org/2000/svg">
<rect width="56" height="56" rx="28" fill="#ECFDF3"/>
<path d="M26 19H20C19.7348 19 19.4804 19.1054 19.2929 19.2929C19.1054 19.4804 19 19.7348 19 20V26C19 26.2652 19.1054 26.5196 19.2929 26.7071C19.4804 26.8946 19.7348 27 20 27H26C26.2652 27 26.5196 26.8946 26.7071 26.7071C26.8946 26.5196 27 26.2652 27 26V20C27 19.7348 26.8946 19.4804 26.7071 19.2929C26.5196 19.1054 26.2652 19 26 19ZM25 25H21V21H25V25ZM36 29H30C29.7348 29 29.4804 29.1054 29.2929 29.2929C29.1054 29.4804 29 29.7348 29 30V36C29 36.2652 29.1054 36.5196 29.2929 36.7071C29.4804 36.8946 29.7348 37 30 37H36C36.2652 37 36.5196 36.8946 36.7071 36.7071C36.8946 36.5196 37 36.2652 37 36V30C37 29.7348 36.8946 29.4804 36.7071 29.2929C36.5196 29.1054 36.2652 29 36 29ZM35 35H31V31H35V35ZM33 19C30.794 19 29 20.794 29 23C29 25.206 30.794 27 33 27C35.206 27 37 25.206 37 23C37 20.794 35.206 19 33 19ZM33 25C31.897 25 31 24.103 31 23C31 21.897 31.897 21 33 21C34.103 21 35 21.897 35 23C35 24.103 34.103 25 33 25ZM23 29C20.794 29 19 30.794 19 33C19 35.206 20.794 37 23 37C25.206 37 27 35.206 27 33C27 30.794 25.206 29 23 29ZM23 35C21.897 35 21 34.103 21 33C21 31.897 21.897 31 23 31C24.103 31 25 31.897 25 33C25 34.103 24.103 35 23 35Z" fill="#039855"/>
</svg>
