<svg width="56" height="56" viewBox="0 0 56 56" fill="none" xmlns="http://www.w3.org/2000/svg">
<rect width="56" height="56" rx="28" fill="#FFFAEB"/>
<path d="M22.516 30.323L21.026 36.775C20.9799 36.9704 20.9937 37.1751 21.0658 37.3625C21.1378 37.5499 21.2647 37.7112 21.4298 37.8253C21.5949 37.9395 21.7906 38.0012 21.9914 38.0024C22.1921 38.0036 22.3886 37.9442 22.555 37.832L28 34.202L33.445 37.832C33.6154 37.9451 33.8162 38.0033 34.0207 37.9988C34.2251 37.9944 34.4232 37.9274 34.5884 37.8069C34.7536 37.6865 34.878 37.5183 34.9448 37.3251C35.0116 37.1318 35.0176 36.9228 34.962 36.726L33.133 30.326L37.669 26.244C37.8143 26.1132 37.9181 25.9427 37.9674 25.7535C38.0168 25.5644 38.0097 25.3649 37.9469 25.1797C37.8841 24.9946 37.7685 24.8319 37.6142 24.7118C37.46 24.5917 37.2739 24.5195 37.079 24.504L31.378 24.05L28.911 18.589C28.8324 18.4132 28.7045 18.2638 28.5428 18.1591C28.3812 18.0543 28.1927 17.9985 28 17.9985C27.8074 17.9985 27.6189 18.0543 27.4572 18.1591C27.2956 18.2638 27.1677 18.4132 27.089 18.589L24.622 24.05L18.921 24.503C18.7295 24.5182 18.5464 24.5882 18.3936 24.7047C18.2408 24.8213 18.1248 24.9793 18.0595 25.16C17.9942 25.3407 17.9824 25.5364 18.0254 25.7237C18.0684 25.911 18.1644 26.0819 18.302 26.216L22.516 30.323ZM25.369 25.997C25.5475 25.9829 25.7189 25.9211 25.8653 25.818C26.0117 25.7149 26.1277 25.5743 26.201 25.411L28 21.43L29.799 25.411C29.8724 25.5743 29.9883 25.7149 30.1347 25.818C30.2811 25.9211 30.4525 25.9829 30.631 25.997L34.603 26.312L31.332 29.256C31.048 29.512 30.935 29.906 31.039 30.274L32.292 34.659L28.556 32.168C28.392 32.0579 28.199 31.9992 28.0015 31.9992C27.804 31.9992 27.611 32.0579 27.447 32.168L23.543 34.771L24.593 30.225C24.6315 30.0578 24.6264 29.8835 24.578 29.7189C24.5297 29.5543 24.4398 29.4048 24.317 29.285L21.279 26.323L25.369 25.997Z" fill="#DC6803"/>
</svg>
