<svg width="56" height="56" viewBox="0 0 56 56" fill="none" xmlns="http://www.w3.org/2000/svg">
<rect width="56" height="56" rx="28" fill="#FFF1F3"/>
<path d="M38 21C38 19.346 36.654 18 35 18H21C19.346 18 18 19.346 18 21V23.831C18 24.884 18.382 25.841 19 26.577V35C19 36.103 19.897 37 21 37H35C36.103 37 37 36.103 37 35V26.576C37.618 25.841 38 24.884 38 23.83V21ZM36 21V23.831C36 24.971 35.151 25.943 34.109 25.998L34 26C32.897 26 32 25.103 32 24V20H35C35.552 20 36 20.449 36 21ZM26 20H30V24C30 25.103 29.103 26 28 26C26.897 26 26 25.103 26 24V20ZM20 21C20 20.449 20.448 20 21 20H24V24C24 25.103 23.103 26 22 26L21.891 25.997C20.849 25.943 20 24.971 20 23.831V21ZM26 35V32H30V35H26ZM32 35V32C32 30.897 31.103 30 30 30H26C24.897 30 24 30.897 24 32V35H21V27.869C21.254 27.936 21.517 27.98 21.787 27.994C22.3899 28.0267 22.9923 27.9221 23.5489 27.6881C24.1055 27.4541 24.6017 27.0967 25 26.643C25.733 27.475 26.807 28 28 28C29.193 28 30.267 27.475 31 26.643C31.3983 27.0967 31.8945 27.4541 32.4511 27.6881C33.0077 27.9221 33.6101 28.0267 34.213 27.994C34.484 27.98 34.746 27.936 35 27.869V35H32Z" fill="#E31B53"/>
</svg>
